<?xml version="1.0" standalone="no"?>
<!DOCTYPE svg PUBLIC "-//W3C//DTD SVG 20010904//EN"
 "http://www.w3.org/TR/2001/REC-SVG-20010904/DTD/svg10.dtd">
<svg version="1.0" xmlns="http://www.w3.org/2000/svg"
 width="256.000000pt" height="256.000000pt" viewBox="0 0 256.000000 256.000000"
 preserveAspectRatio="xMidYMid meet">
<metadata>
Created by potrace 1.14, written by Peter Selinger 2001-2017
</metadata>
<g transform="translate(0.000000,256.000000) scale(0.100000,-0.100000)"
fill="#000000" stroke="none">
<path d="M265 2118 c-21 -27 -36 -50 -34 -51 2 -2 76 -27 164 -56 88 -30 163
-56 167 -60 4 -4 -6 -42 -23 -86 -16 -44 -45 -123 -64 -175 -112 -316 -184
-512 -189 -517 -4 -4 -61 13 -129 36 -67 24 -130 45 -140 48 -16 5 -17 -1 -12
-58 5 -63 13 -81 37 -85 7 -1 74 -23 148 -48 110 -38 139 -45 158 -36 30 13
29 14 36 -12 7 -29 71 -97 101 -108 15 -6 26 -22 34 -54 12 -50 66 -118 112
-142 16 -8 44 -14 64 -14 23 0 35 -5 35 -14 0 -22 77 -102 115 -120 20 -10 49
-15 65 -12 22 3 31 0 35 -13 11 -35 95 -110 131 -117 50 -9 101 1 137 29 l30
23 61 -32 c70 -37 121 -49 171 -40 39 8 93 55 118 102 13 26 21 30 45 26 69
-10 163 44 195 111 14 29 21 33 57 34 51 1 98 23 140 65 46 48 63 86 63 143
l0 51 45 18 c30 13 55 33 75 62 34 48 37 50 119 59 70 7 207 31 212 36 3 2 7
30 11 63 l6 58 -45 -5 c-25 -3 -81 -11 -125 -18 -45 -7 -83 -11 -85 -8 -3 3
-38 224 -52 329 -2 19 -7 50 -10 69 -3 19 -8 53 -10 75 -3 23 -7 48 -9 56 -2
8 -7 42 -11 75 -3 33 -8 62 -9 65 -2 3 -7 33 -10 65 -4 33 -9 63 -12 68 -6 10
12 16 96 30 l72 12 -41 55 c-23 30 -45 54 -48 54 -4 -1 -27 -5 -52 -8 -122
-16 -145 -25 -155 -57 -7 -21 -11 -21 -114 -16 -58 3 -119 9 -136 12 -36 8
-272 63 -300 71 -87 23 -189 12 -255 -29 -19 -12 -37 -22 -40 -23 -46 -6 -152
-36 -267 -75 -79 -27 -163 -52 -188 -56 -43 -5 -45 -5 -45 20 0 14 -7 32 -15
40 -12 13 -307 116 -371 130 -17 3 -30 -7 -59 -45z m1275 -99 c47 -10 123 -28
170 -39 96 -22 168 -31 282 -33 71 -1 78 -3 79 -22 0 -11 2 -27 4 -35 3 -16
12 -76 21 -142 3 -24 7 -50 9 -58 2 -8 7 -40 10 -70 3 -30 8 -62 10 -70 2 -8
7 -39 10 -69 4 -30 10 -75 15 -99 l8 -44 -30 29 c-17 15 -60 59 -97 97 -307
319 -453 439 -546 447 -52 4 -69 -5 -142 -72 -43 -40 -100 -82 -128 -95 -50
-24 -120 -30 -158 -15 -16 6 -14 12 20 51 21 25 83 90 138 146 132 133 137
135 325 93z m-500 -93 c0 -2 -34 -39 -75 -82 -94 -100 -99 -126 -35 -185 48
-44 112 -64 200 -62 103 2 210 58 308 162 l32 35 36 -19 c64 -34 175 -134 357
-319 195 -198 267 -285 267 -322 0 -14 -12 -36 -26 -51 -20 -20 -32 -24 -55
-19 -40 8 -119 61 -205 137 -84 75 -122 99 -143 92 -29 -11 -51 -36 -51 -60 0
-26 14 -42 150 -163 172 -155 187 -177 151 -229 -26 -36 -53 -46 -83 -30 -27
14 -153 111 -256 198 -79 66 -109 74 -142 41 -35 -35 -25 -58 57 -134 177
-164 205 -194 193 -215 -5 -11 -20 -27 -32 -35 -18 -13 -25 -13 -55 -1 -46 20
-218 138 -268 185 -43 40 -85 59 -125 55 -20 -2 -30 6 -50 37 -34 55 -82 90
-133 95 -37 5 -46 11 -71 51 -16 25 -49 57 -72 71 -31 18 -43 33 -44 49 0 54
-90 155 -148 167 -63 13 -96 -2 -193 -87 -68 -60 -89 -74 -84 -57 20 70 219
609 224 609 109 7 145 14 243 48 119 42 128 44 128 38z m-311 -700 c7 -8 11
-24 9 -35 -4 -24 -167 -171 -190 -171 -9 0 -26 13 -37 29 -25 35 -25 36 93
140 82 72 93 76 125 37z m138 -188 c13 -12 23 -28 23 -36 0 -17 -175 -182
-194 -182 -9 0 -56 54 -56 65 0 6 30 38 67 70 37 33 76 70 87 82 27 28 44 28
73 1z m233 -181 c0 -16 -175 -177 -193 -177 -17 0 -57 42 -57 61 0 9 19 32 43
52 23 19 58 51 78 70 59 57 70 60 102 29 15 -14 27 -30 27 -35z m189 -103 c12
-15 21 -30 21 -35 0 -6 -79 -85 -124 -124 -7 -5 -24 -21 -39 -34 -25 -23 -28
-23 -51 -8 -44 29 -43 54 6 100 95 91 138 127 152 127 8 0 24 -12 35 -26z
m181 -154 c20 -27 20 -28 -1 -54 -22 -29 -32 -28 -97 2 l-33 15 42 43 c46 47
51 47 89 -6z"/>
</g>
</svg>
