<?xml version="1.0" standalone="no"?>
<!DOCTYPE svg PUBLIC "-//W3C//DTD SVG 20010904//EN"
 "http://www.w3.org/TR/2001/REC-SVG-20010904/DTD/svg10.dtd">
<svg version="1.0" xmlns="http://www.w3.org/2000/svg"
 width="256.000000pt" height="256.000000pt" viewBox="0 0 256.000000 256.000000"
 preserveAspectRatio="xMidYMid meet">
<metadata>
Created by potrace 1.14, written by Peter Selinger 2001-2017
</metadata>
<g transform="translate(0.000000,256.000000) scale(0.100000,-0.100000)"
fill="#000000" stroke="none">
<path d="M0 1912 l0 -648 133 -47 c73 -26 138 -47 144 -47 6 0 23 33 37 72
205 566 253 704 248 709 -4 4 -79 30 -167 59 -88 29 -162 54 -164 56 -2 2 11
24 30 48 24 33 41 45 59 46 36 0 349 -106 371 -126 11 -10 19 -28 19 -41 0
-36 42 -30 221 31 87 30 187 60 221 67 35 7 79 23 98 35 50 32 116 47 180 41
30 -4 132 -25 225 -47 121 -29 202 -43 281 -47 108 -6 112 -5 119 16 8 28 27
36 106 50 105 18 110 17 152 -42 l38 -52 -48 -8 c-108 -18 -118 -22 -116 -42
15 -115 115 -791 119 -794 2 -2 60 4 129 14 l125 18 0 663 0 664 -1280 0
-1280 0 0 -648z"/>
<path d="M1354 2039 c-40 -12 -101 -66 -220 -196 -106 -116 -107 -123 -19
-123 71 0 137 35 229 120 l78 72 58 -4 c47 -3 70 -12 114 -41 83 -55 191 -153
382 -346 93 -95 170 -166 172 -159 1 7 -16 139 -38 292 -22 153 -40 282 -40
286 0 4 -62 10 -137 13 -115 4 -166 12 -303 45 -200 48 -236 53 -276 41z"/>
<path d="M915 1889 c-65 -23 -139 -41 -182 -45 l-71 -7 -111 -306 c-61 -169
-111 -310 -111 -314 0 -4 41 28 91 72 124 110 179 118 266 38 50 -46 73 -84
73 -120 0 -18 8 -28 31 -37 29 -12 109 -101 109 -121 0 -5 14 -9 31 -9 17 0
46 -7 65 -16 34 -16 104 -93 104 -114 0 -6 10 -11 23 -10 61 5 78 -1 133 -51
82 -74 260 -189 293 -189 36 0 65 32 57 63 -3 13 -54 68 -113 122 -168 153
-175 163 -133 205 35 35 62 25 166 -62 148 -122 239 -188 258 -188 25 0 76 54
76 81 0 23 -115 143 -257 269 -68 60 -79 92 -45 123 37 33 69 21 159 -58 102
-89 181 -143 222 -151 23 -5 35 -1 55 19 37 37 32 66 -20 136 -63 84 -424 445
-504 505 -106 79 -99 79 -181 1 -109 -102 -228 -146 -340 -125 -151 29 -214
123 -133 201 48 46 118 129 107 128 -4 0 -57 -18 -118 -40z"/>
<path d="M604 1189 c-129 -115 -120 -102 -95 -138 12 -17 30 -31 40 -31 16 0
177 137 193 164 8 15 -15 52 -41 65 -15 8 -33 -3 -97 -60z"/>
<path d="M2 598 l-2 -598 1280 0 1280 0 -1 593 c-1 325 -5 574 -8 552 l-6 -39
-150 -22 c-114 -17 -152 -27 -160 -40 -26 -44 -59 -74 -101 -91 -42 -17 -45
-20 -40 -47 10 -46 -12 -105 -57 -153 -48 -52 -89 -73 -146 -73 -36 0 -42 -4
-63 -42 -34 -63 -95 -101 -163 -103 -53 -2 -55 -3 -87 -50 -64 -93 -135 -106
-265 -45 l-72 32 -33 -23 c-26 -19 -46 -24 -95 -24 -61 0 -63 1 -113 50 -27
27 -52 57 -55 66 -4 11 -13 15 -29 12 -43 -9 -94 16 -141 69 -25 27 -45 56
-45 64 0 9 -12 14 -35 14 -20 0 -48 6 -64 14 -39 20 -99 90 -107 123 -12 55
-15 62 -33 68 -26 8 -111 101 -111 121 0 12 -5 14 -17 8 -33 -14 -67 -7 -210
42 l-142 49 -4 35 c-2 19 -4 -234 -5 -562z"/>
<path d="M731 978 c-50 -45 -91 -87 -91 -93 0 -6 13 -24 29 -39 l30 -29 30 26
c98 82 161 144 161 158 0 17 -40 59 -57 59 -6 0 -51 -37 -102 -82z"/>
<path d="M945 839 c-50 -45 -92 -88 -93 -96 -4 -17 35 -63 54 -63 13 0 187
154 193 171 3 10 -46 69 -58 69 -4 0 -47 -36 -96 -81z"/>
<path d="M1150 699 c-49 -45 -90 -89 -90 -99 0 -19 44 -64 58 -59 17 7 187
162 190 174 4 16 -36 65 -53 65 -8 0 -55 -37 -105 -81z"/>
<path d="M1376 601 l-37 -38 51 -22 c41 -18 54 -20 66 -10 33 27 35 46 8 78
-14 17 -31 31 -38 31 -7 0 -29 -17 -50 -39z"/>
</g>
</svg>
